<svg width="31" height="31" viewBox="0 0 31 31" fill="none" xmlns="http://www.w3.org/2000/svg">
<path d="M15.6726 8.76172C11.946 8.76172 8.94019 11.7676 8.94019 15.4941C8.94019 19.2207 11.946 22.2266 15.6726 22.2266C19.3992 22.2266 22.405 19.2207 22.405 15.4941C22.405 11.7676 19.3992 8.76172 15.6726 8.76172ZM15.6726 19.8711C13.2644 19.8711 11.2957 17.9082 11.2957 15.4941C11.2957 13.0801 13.2585 11.1172 15.6726 11.1172C18.0867 11.1172 20.0496 13.0801 20.0496 15.4941C20.0496 17.9082 18.0808 19.8711 15.6726 19.8711ZM24.2507 8.48633C24.2507 9.35938 23.5476 10.0566 22.6804 10.0566C21.8074 10.0566 21.1101 9.35352 21.1101 8.48633C21.1101 7.61914 21.8132 6.91602 22.6804 6.91602C23.5476 6.91602 24.2507 7.61914 24.2507 8.48633ZM28.7097 10.0801C28.6101 7.97656 28.1296 6.11328 26.5886 4.57812C25.0535 3.04297 23.1902 2.5625 21.0867 2.45703C18.9187 2.33398 12.4207 2.33398 10.2527 2.45703C8.15503 2.55664 6.29175 3.03711 4.75073 4.57227C3.20972 6.10742 2.73511 7.9707 2.62964 10.0742C2.50659 12.2422 2.50659 18.7402 2.62964 20.9082C2.72925 23.0117 3.20972 24.875 4.75073 26.4102C6.29175 27.9453 8.14917 28.4258 10.2527 28.5312C12.4207 28.6543 18.9187 28.6543 21.0867 28.5312C23.1902 28.4316 25.0535 27.9512 26.5886 26.4102C28.1238 24.875 28.6042 23.0117 28.7097 20.9082C28.8328 18.7402 28.8328 12.248 28.7097 10.0801ZM25.9089 23.2344C25.4519 24.3828 24.5671 25.2676 23.4128 25.7305C21.6843 26.416 17.5828 26.2578 15.6726 26.2578C13.7625 26.2578 9.65503 26.4102 7.93237 25.7305C6.78394 25.2734 5.89917 24.3887 5.43628 23.2344C4.75073 21.5059 4.90894 17.4043 4.90894 15.4941C4.90894 13.584 4.75659 9.47656 5.43628 7.75391C5.89331 6.60547 6.77808 5.7207 7.93237 5.25781C9.66089 4.57227 13.7625 4.73047 15.6726 4.73047C17.5828 4.73047 21.6902 4.57812 23.4128 5.25781C24.5613 5.71484 25.446 6.59961 25.9089 7.75391C26.5945 9.48242 26.4363 13.584 26.4363 15.4941C26.4363 17.4043 26.5945 21.5117 25.9089 23.2344Z" fill="white"/>
</svg>
