<svg width="124" height="45" viewBox="0 0 124 45" fill="none" xmlns="http://www.w3.org/2000/svg">
<rect width="108.738" height="5" transform="matrix(-1 0 0 1 108.738 0)" fill="white"/>
<rect width="10.4923" height="5" transform="matrix(-1 0 0 1 124 0)" fill="white"/>
<path d="M16.9091 13.34C18.8091 13.34 20.4691 13.77 21.8891 14.63C23.3291 15.49 24.4391 16.73 25.2191 18.35C26.0191 19.95 26.4191 21.9 26.4191 24.2C26.4191 26.44 26.0091 28.4 25.1891 30.08C24.3891 31.76 23.2691 33.07 21.8291 34.01C20.3891 34.95 18.7391 35.42 16.8791 35.42C14.9791 35.42 13.3091 34.99 11.8691 34.13C10.4491 33.27 9.33905 32.03 8.53905 30.41C7.75905 28.79 7.36905 26.84 7.36905 24.56C7.36905 22.32 7.77905 20.36 8.59905 18.68C9.41905 17 10.5391 15.69 11.9591 14.75C13.3991 13.81 15.0491 13.34 16.9091 13.34ZM16.7891 13.88C15.4891 13.88 14.3591 14.33 13.3991 15.23C12.4391 16.13 11.6891 17.37 11.1491 18.95C10.6291 20.53 10.3691 22.36 10.3691 24.44C10.3691 26.56 10.6591 28.41 11.2391 29.99C11.8391 31.55 12.6391 32.76 13.6391 33.62C14.6591 34.46 15.7791 34.88 16.9991 34.88C18.2991 34.88 19.4291 34.43 20.3891 33.53C21.3491 32.63 22.0891 31.39 22.6091 29.81C23.1491 28.21 23.4191 26.38 23.4191 24.32C23.4191 22.18 23.1191 20.33 22.5191 18.77C21.9391 17.21 21.1491 16.01 20.1491 15.17C19.1491 14.31 18.0291 13.88 16.7891 13.88ZM36.691 13.76V14.36C36.011 14.38 35.491 14.46 35.131 14.6C34.791 14.72 34.561 14.96 34.441 15.32C34.321 15.66 34.261 16.2 34.261 16.94V31.82C34.261 32.54 34.321 33.08 34.441 33.44C34.561 33.8 34.791 34.04 35.131 34.16C35.491 34.26 36.011 34.31 36.691 34.31H38.881C39.821 34.31 40.581 34.21 41.161 34.01C41.761 33.81 42.231 33.5 42.571 33.08C42.931 32.64 43.201 32.06 43.381 31.34C43.561 30.62 43.701 29.74 43.801 28.7H44.491C44.431 29.32 44.401 30.14 44.401 31.16C44.401 31.54 44.411 32.09 44.431 32.81C44.471 33.51 44.531 34.24 44.611 35C43.591 34.96 42.441 34.94 41.161 34.94C39.881 34.92 38.741 34.91 37.741 34.91C37.301 34.91 36.731 34.91 36.031 34.91C35.351 34.91 34.611 34.92 33.811 34.94C33.011 34.94 32.201 34.95 31.381 34.97C30.561 34.97 29.781 34.98 29.041 35V34.4C29.721 34.36 30.231 34.28 30.571 34.16C30.931 34.04 31.171 33.8 31.291 33.44C31.411 33.08 31.471 32.54 31.471 31.82V16.94C31.471 16.2 31.411 15.66 31.291 15.32C31.171 14.96 30.931 14.72 30.571 14.6C30.231 14.46 29.721 14.38 29.041 14.36V13.76C29.461 13.78 30.011 13.8 30.691 13.82C31.371 13.84 32.101 13.85 32.881 13.85C33.581 13.85 34.271 13.84 34.951 13.82C35.651 13.8 36.231 13.78 36.691 13.76ZM54.3277 13.76V14.36C53.6477 14.38 53.1277 14.46 52.7677 14.6C52.4277 14.72 52.1977 14.96 52.0777 15.32C51.9577 15.66 51.8977 16.2 51.8977 16.94V31.82C51.8977 32.54 51.9577 33.08 52.0777 33.44C52.1977 33.8 52.4277 34.04 52.7677 34.16C53.1277 34.28 53.6477 34.36 54.3277 34.4V35C53.8677 34.96 53.2877 34.94 52.5877 34.94C51.9077 34.92 51.2177 34.91 50.5177 34.91C49.7377 34.91 49.0077 34.92 48.3277 34.94C47.6477 34.94 47.0977 34.96 46.6777 35V34.4C47.3577 34.36 47.8677 34.28 48.2077 34.16C48.5677 34.04 48.8077 33.8 48.9277 33.44C49.0477 33.08 49.1077 32.54 49.1077 31.82V16.94C49.1077 16.2 49.0477 15.66 48.9277 15.32C48.8077 14.96 48.5677 14.72 48.2077 14.6C47.8677 14.46 47.3577 14.38 46.6777 14.36V13.76C47.0977 13.78 47.6477 13.8 48.3277 13.82C49.0077 13.84 49.7377 13.85 50.5177 13.85C51.2177 13.85 51.9077 13.84 52.5877 13.82C53.2877 13.8 53.8677 13.78 54.3277 13.76ZM71.7191 13.61L79.0391 32.48C79.3391 33.24 79.6791 33.75 80.0591 34.01C80.4391 34.25 80.7891 34.38 81.1091 34.4V35C80.7091 34.96 80.2191 34.94 79.6391 34.94C79.0591 34.92 78.4791 34.91 77.8991 34.91C77.1191 34.91 76.3891 34.92 75.7091 34.94C75.0291 34.94 74.4791 34.96 74.0591 35V34.4C75.0791 34.36 75.7291 34.19 76.0091 33.89C76.2891 33.57 76.2291 32.9 75.8291 31.88L70.2491 16.97L70.7291 16.58L65.5091 30.14C65.1891 30.94 64.9991 31.62 64.9391 32.18C64.8791 32.72 64.9291 33.15 65.0891 33.47C65.2691 33.79 65.5591 34.02 65.9591 34.16C66.3791 34.3 66.8991 34.38 67.5191 34.4V35C66.9591 34.96 66.3691 34.94 65.7491 34.94C65.1491 34.92 64.5891 34.91 64.0691 34.91C63.5691 34.91 63.1391 34.92 62.7791 34.94C62.4391 34.94 62.1191 34.96 61.8191 35V34.4C62.2191 34.3 62.6291 34.07 63.0491 33.71C63.4691 33.33 63.8491 32.69 64.1891 31.79L71.2391 13.61C71.3191 13.61 71.3991 13.61 71.4791 13.61C71.5591 13.61 71.6391 13.61 71.7191 13.61ZM75.3791 26.36V26.96H66.4391L66.7391 26.36H75.3791ZM81.5996 13.76C82.0196 13.78 82.5696 13.8 83.2496 13.82C83.9296 13.84 84.5996 13.85 85.2596 13.85C86.1996 13.85 87.0996 13.84 87.9596 13.82C88.8196 13.8 89.4296 13.79 89.7896 13.79C91.4096 13.79 92.7496 14.02 93.8096 14.48C94.8896 14.94 95.6896 15.57 96.2096 16.37C96.7496 17.15 97.0196 18.03 97.0196 19.01C97.0196 19.61 96.8996 20.25 96.6596 20.93C96.4196 21.61 95.9996 22.25 95.3996 22.85C94.8196 23.45 94.0196 23.95 92.9996 24.35C91.9796 24.73 90.6896 24.92 89.1296 24.92H86.2496V24.32H88.8296C90.2496 24.32 91.3296 24.1 92.0696 23.66C92.8296 23.2 93.3396 22.6 93.5996 21.86C93.8796 21.1 94.0196 20.26 94.0196 19.34C94.0196 17.76 93.6396 16.54 92.8796 15.68C92.1396 14.8 90.8596 14.36 89.0396 14.36C88.1196 14.36 87.5196 14.53 87.2396 14.87C86.9596 15.21 86.8196 15.9 86.8196 16.94V31.82C86.8196 32.54 86.8796 33.08 86.9996 33.44C87.1196 33.8 87.3496 34.04 87.6896 34.16C88.0496 34.28 88.5696 34.36 89.2496 34.4V35C88.7896 34.96 88.2096 34.94 87.5096 34.94C86.8296 34.92 86.1396 34.91 85.4396 34.91C84.6596 34.91 83.9296 34.92 83.2496 34.94C82.5696 34.94 82.0196 34.96 81.5996 35V34.4C82.2796 34.36 82.7896 34.28 83.1296 34.16C83.4896 34.04 83.7296 33.8 83.8496 33.44C83.9696 33.08 84.0296 32.54 84.0296 31.82V16.94C84.0296 16.2 83.9696 15.66 83.8496 15.32C83.7296 14.96 83.4896 14.72 83.1296 14.6C82.7896 14.46 82.2796 14.38 81.5996 14.36V13.76ZM86.3696 24.41C87.4496 24.45 88.2996 24.5 88.9196 24.56C89.5396 24.6 90.0396 24.64 90.4196 24.68C90.8196 24.72 91.1996 24.77 91.5596 24.83C92.8996 25.05 93.8596 25.46 94.4396 26.06C95.0396 26.64 95.4796 27.55 95.7596 28.79L96.5096 31.85C96.7096 32.73 96.9096 33.37 97.1096 33.77C97.3296 34.15 97.6596 34.33 98.0996 34.31C98.4396 34.29 98.7196 34.18 98.9396 33.98C99.1796 33.78 99.4296 33.51 99.6896 33.17L100.14 33.5C99.7196 34.12 99.2796 34.6 98.8196 34.94C98.3796 35.26 97.7496 35.42 96.9296 35.42C96.1896 35.42 95.5396 35.2 94.9796 34.76C94.4196 34.32 93.9996 33.46 93.7196 32.18L93.0596 29.18C92.8796 28.32 92.6696 27.58 92.4296 26.96C92.2096 26.32 91.8896 25.82 91.4696 25.46C91.0696 25.1 90.4696 24.92 89.6696 24.92H86.4296L86.3696 24.41ZM117.348 13.76C117.268 14.52 117.208 15.26 117.168 15.98C117.148 16.68 117.138 17.22 117.138 17.6C117.138 18.08 117.148 18.53 117.168 18.95C117.188 19.37 117.208 19.74 117.228 20.06H116.538C116.398 18.66 116.208 17.56 115.968 16.76C115.728 15.94 115.308 15.35 114.708 14.99C114.108 14.63 113.178 14.45 111.918 14.45H110.298V31.52C110.298 32.32 110.368 32.92 110.508 33.32C110.668 33.72 110.968 33.99 111.408 34.13C111.848 34.27 112.488 34.36 113.328 34.4V35C112.808 34.96 112.148 34.94 111.348 34.94C110.548 34.92 109.738 34.91 108.918 34.91C108.018 34.91 107.168 34.92 106.368 34.94C105.588 34.94 104.958 34.96 104.478 35V34.4C105.318 34.36 105.958 34.27 106.398 34.13C106.838 33.99 107.128 33.72 107.268 33.32C107.428 32.92 107.508 32.32 107.508 31.52V14.45H105.888C104.648 14.45 103.718 14.63 103.098 14.99C102.498 15.35 102.078 15.94 101.838 16.76C101.598 17.56 101.408 18.66 101.268 20.06H100.578C100.618 19.74 100.638 19.37 100.638 18.95C100.658 18.53 100.668 18.08 100.668 17.6C100.668 17.22 100.648 16.68 100.608 15.98C100.588 15.26 100.538 14.52 100.458 13.76C101.298 13.78 102.208 13.8 103.188 13.82C104.188 13.84 105.188 13.85 106.188 13.85C107.188 13.85 108.098 13.85 108.918 13.85C109.738 13.85 110.638 13.85 111.618 13.85C112.618 13.85 113.618 13.84 114.618 13.82C115.618 13.8 116.528 13.78 117.348 13.76Z" fill="white"/>
<rect x="15.2612" y="40" width="108.738" height="5" fill="white"/>
<rect x="-0.000244141" y="40" width="10.4923" height="5" fill="white"/>
</svg>
