<svg width="124" height="45" viewBox="0 0 124 45" fill="none" xmlns="http://www.w3.org/2000/svg">
<rect width="108.738" height="5" transform="matrix(-1 0 0 1 108.739 0)" fill="#333333"/>
<rect width="10.4923" height="5" transform="matrix(-1 0 0 1 124 0)" fill="#333333"/>
<path d="M16.9093 13.34C18.8093 13.34 20.4693 13.77 21.8893 14.63C23.3293 15.49 24.4393 16.73 25.2193 18.35C26.0193 19.95 26.4193 21.9 26.4193 24.2C26.4193 26.44 26.0093 28.4 25.1893 30.08C24.3893 31.76 23.2693 33.07 21.8293 34.01C20.3893 34.95 18.7393 35.42 16.8793 35.42C14.9793 35.42 13.3093 34.99 11.8693 34.13C10.4493 33.27 9.3393 32.03 8.5393 30.41C7.7593 28.79 7.3693 26.84 7.3693 24.56C7.3693 22.32 7.7793 20.36 8.5993 18.68C9.4193 17 10.5393 15.69 11.9593 14.75C13.3993 13.81 15.0493 13.34 16.9093 13.34ZM16.7893 13.88C15.4893 13.88 14.3593 14.33 13.3993 15.23C12.4393 16.13 11.6893 17.37 11.1493 18.95C10.6293 20.53 10.3693 22.36 10.3693 24.44C10.3693 26.56 10.6593 28.41 11.2393 29.99C11.8393 31.55 12.6393 32.76 13.6393 33.62C14.6593 34.46 15.7793 34.88 16.9993 34.88C18.2993 34.88 19.4293 34.43 20.3893 33.53C21.3493 32.63 22.0893 31.39 22.6093 29.81C23.1493 28.21 23.4193 26.38 23.4193 24.32C23.4193 22.18 23.1193 20.33 22.5193 18.77C21.9393 17.21 21.1493 16.01 20.1493 15.17C19.1493 14.31 18.0293 13.88 16.7893 13.88ZM36.6913 13.76V14.36C36.0113 14.38 35.4913 14.46 35.1313 14.6C34.7913 14.72 34.5613 14.96 34.4413 15.32C34.3213 15.66 34.2613 16.2 34.2613 16.94V31.82C34.2613 32.54 34.3213 33.08 34.4413 33.44C34.5613 33.8 34.7913 34.04 35.1313 34.16C35.4913 34.26 36.0113 34.31 36.6913 34.31H38.8813C39.8213 34.31 40.5813 34.21 41.1613 34.01C41.7613 33.81 42.2313 33.5 42.5713 33.08C42.9313 32.64 43.2013 32.06 43.3813 31.34C43.5613 30.62 43.7013 29.74 43.8013 28.7H44.4913C44.4313 29.32 44.4013 30.14 44.4013 31.16C44.4013 31.54 44.4113 32.09 44.4313 32.81C44.4713 33.51 44.5313 34.24 44.6113 35C43.5913 34.96 42.4413 34.94 41.1613 34.94C39.8813 34.92 38.7413 34.91 37.7413 34.91C37.3013 34.91 36.7313 34.91 36.0313 34.91C35.3513 34.91 34.6113 34.92 33.8113 34.94C33.0113 34.94 32.2013 34.95 31.3813 34.97C30.5613 34.97 29.7813 34.98 29.0413 35V34.4C29.7213 34.36 30.2313 34.28 30.5713 34.16C30.9313 34.04 31.1713 33.8 31.2913 33.44C31.4113 33.08 31.4713 32.54 31.4713 31.82V16.94C31.4713 16.2 31.4113 15.66 31.2913 15.32C31.1713 14.96 30.9313 14.72 30.5713 14.6C30.2313 14.46 29.7213 14.38 29.0413 14.36V13.76C29.4613 13.78 30.0113 13.8 30.6913 13.82C31.3713 13.84 32.1013 13.85 32.8813 13.85C33.5813 13.85 34.2713 13.84 34.9513 13.82C35.6513 13.8 36.2313 13.78 36.6913 13.76ZM54.328 13.76V14.36C53.648 14.38 53.128 14.46 52.768 14.6C52.428 14.72 52.198 14.96 52.078 15.32C51.958 15.66 51.898 16.2 51.898 16.94V31.82C51.898 32.54 51.958 33.08 52.078 33.44C52.198 33.8 52.428 34.04 52.768 34.16C53.128 34.28 53.648 34.36 54.328 34.4V35C53.868 34.96 53.288 34.94 52.588 34.94C51.908 34.92 51.218 34.91 50.518 34.91C49.738 34.91 49.008 34.92 48.328 34.94C47.648 34.94 47.098 34.96 46.678 35V34.4C47.358 34.36 47.868 34.28 48.208 34.16C48.568 34.04 48.808 33.8 48.928 33.44C49.048 33.08 49.108 32.54 49.108 31.82V16.94C49.108 16.2 49.048 15.66 48.928 15.32C48.808 14.96 48.568 14.72 48.208 14.6C47.868 14.46 47.358 14.38 46.678 14.36V13.76C47.098 13.78 47.648 13.8 48.328 13.82C49.008 13.84 49.738 13.85 50.518 13.85C51.218 13.85 51.908 13.84 52.588 13.82C53.288 13.8 53.868 13.78 54.328 13.76ZM71.7193 13.61L79.0393 32.48C79.3393 33.24 79.6793 33.75 80.0593 34.01C80.4393 34.25 80.7893 34.38 81.1093 34.4V35C80.7093 34.96 80.2193 34.94 79.6393 34.94C79.0593 34.92 78.4793 34.91 77.8993 34.91C77.1193 34.91 76.3893 34.92 75.7093 34.94C75.0293 34.94 74.4793 34.96 74.0593 35V34.4C75.0793 34.36 75.7293 34.19 76.0093 33.89C76.2893 33.57 76.2293 32.9 75.8293 31.88L70.2493 16.97L70.7293 16.58L65.5093 30.14C65.1893 30.94 64.9993 31.62 64.9393 32.18C64.8793 32.72 64.9293 33.15 65.0893 33.47C65.2693 33.79 65.5593 34.02 65.9593 34.16C66.3793 34.3 66.8993 34.38 67.5193 34.4V35C66.9593 34.96 66.3693 34.94 65.7493 34.94C65.1493 34.92 64.5893 34.91 64.0693 34.91C63.5693 34.91 63.1393 34.92 62.7793 34.94C62.4393 34.94 62.1193 34.96 61.8193 35V34.4C62.2193 34.3 62.6293 34.07 63.0493 33.71C63.4693 33.33 63.8493 32.69 64.1893 31.79L71.2393 13.61C71.3193 13.61 71.3993 13.61 71.4793 13.61C71.5593 13.61 71.6393 13.61 71.7193 13.61ZM75.3793 26.36V26.96H66.4393L66.7393 26.36H75.3793ZM81.5998 13.76C82.0198 13.78 82.5698 13.8 83.2498 13.82C83.9298 13.84 84.5998 13.85 85.2598 13.85C86.1998 13.85 87.0998 13.84 87.9598 13.82C88.8198 13.8 89.4298 13.79 89.7898 13.79C91.4098 13.79 92.7498 14.02 93.8098 14.48C94.8898 14.94 95.6898 15.57 96.2098 16.37C96.7498 17.15 97.0198 18.03 97.0198 19.01C97.0198 19.61 96.8998 20.25 96.6598 20.93C96.4198 21.61 95.9998 22.25 95.3998 22.85C94.8198 23.45 94.0198 23.95 92.9998 24.35C91.9798 24.73 90.6898 24.92 89.1298 24.92H86.2498V24.32H88.8298C90.2498 24.32 91.3298 24.1 92.0698 23.66C92.8298 23.2 93.3398 22.6 93.5998 21.86C93.8798 21.1 94.0198 20.26 94.0198 19.34C94.0198 17.76 93.6398 16.54 92.8798 15.68C92.1398 14.8 90.8598 14.36 89.0398 14.36C88.1198 14.36 87.5198 14.53 87.2398 14.87C86.9598 15.21 86.8198 15.9 86.8198 16.94V31.82C86.8198 32.54 86.8798 33.08 86.9998 33.44C87.1198 33.8 87.3498 34.04 87.6898 34.16C88.0498 34.28 88.5698 34.36 89.2498 34.4V35C88.7898 34.96 88.2098 34.94 87.5098 34.94C86.8298 34.92 86.1398 34.91 85.4398 34.91C84.6598 34.91 83.9298 34.92 83.2498 34.94C82.5698 34.94 82.0198 34.96 81.5998 35V34.4C82.2798 34.36 82.7898 34.28 83.1298 34.16C83.4898 34.04 83.7298 33.8 83.8498 33.44C83.9698 33.08 84.0298 32.54 84.0298 31.82V16.94C84.0298 16.2 83.9698 15.66 83.8498 15.32C83.7298 14.96 83.4898 14.72 83.1298 14.6C82.7898 14.46 82.2798 14.38 81.5998 14.36V13.76ZM86.3698 24.41C87.4498 24.45 88.2998 24.5 88.9198 24.56C89.5398 24.6 90.0398 24.64 90.4198 24.68C90.8198 24.72 91.1998 24.77 91.5598 24.83C92.8998 25.05 93.8598 25.46 94.4398 26.06C95.0398 26.64 95.4798 27.55 95.7598 28.79L96.5098 31.85C96.7098 32.73 96.9098 33.37 97.1098 33.77C97.3298 34.15 97.6598 34.33 98.0998 34.31C98.4398 34.29 98.7198 34.18 98.9398 33.98C99.1798 33.78 99.4298 33.51 99.6898 33.17L100.14 33.5C99.7198 34.12 99.2798 34.6 98.8198 34.94C98.3798 35.26 97.7498 35.42 96.9298 35.42C96.1898 35.42 95.5398 35.2 94.9798 34.76C94.4198 34.32 93.9998 33.46 93.7198 32.18L93.0598 29.18C92.8798 28.32 92.6698 27.58 92.4298 26.96C92.2098 26.32 91.8898 25.82 91.4698 25.46C91.0698 25.1 90.4698 24.92 89.6698 24.92H86.4298L86.3698 24.41ZM117.348 13.76C117.268 14.52 117.208 15.26 117.168 15.98C117.148 16.68 117.138 17.22 117.138 17.6C117.138 18.08 117.148 18.53 117.168 18.95C117.188 19.37 117.208 19.74 117.228 20.06H116.538C116.398 18.66 116.208 17.56 115.968 16.76C115.728 15.94 115.308 15.35 114.708 14.99C114.108 14.63 113.178 14.45 111.918 14.45H110.298V31.52C110.298 32.32 110.368 32.92 110.508 33.32C110.668 33.72 110.968 33.99 111.408 34.13C111.848 34.27 112.488 34.36 113.328 34.4V35C112.808 34.96 112.148 34.94 111.348 34.94C110.548 34.92 109.738 34.91 108.918 34.91C108.018 34.91 107.168 34.92 106.368 34.94C105.588 34.94 104.958 34.96 104.478 35V34.4C105.318 34.36 105.958 34.27 106.398 34.13C106.838 33.99 107.128 33.72 107.268 33.32C107.428 32.92 107.508 32.32 107.508 31.52V14.45H105.888C104.648 14.45 103.718 14.63 103.098 14.99C102.498 15.35 102.078 15.94 101.838 16.76C101.598 17.56 101.408 18.66 101.268 20.06H100.578C100.618 19.74 100.638 19.37 100.638 18.95C100.658 18.53 100.668 18.08 100.668 17.6C100.668 17.22 100.648 16.68 100.608 15.98C100.588 15.26 100.538 14.52 100.458 13.76C101.298 13.78 102.208 13.8 103.188 13.82C104.188 13.84 105.188 13.85 106.188 13.85C107.188 13.85 108.098 13.85 108.918 13.85C109.738 13.85 110.638 13.85 111.618 13.85C112.618 13.85 113.618 13.84 114.618 13.82C115.618 13.8 116.528 13.78 117.348 13.76Z" fill="#333333"/>
<rect x="15.2617" y="40" width="108.738" height="5" fill="#333333"/>
<rect y="40" width="10.4923" height="5" fill="#333333"/>
</svg>
