<svg width="30" height="31" viewBox="0 0 30 31" fill="none" xmlns="http://www.w3.org/2000/svg">
<path d="M24.1934 6.18945C21.7383 3.72852 18.4688 2.375 14.9941 2.375C7.82227 2.375 1.98633 8.21094 1.98633 15.3828C1.98633 17.6738 2.58398 19.9121 3.7207 21.8867L1.875 28.625L8.77148 26.8145C10.6699 27.8516 12.8086 28.3965 14.9883 28.3965H14.9941C22.1602 28.3965 28.125 22.5605 28.125 15.3887C28.125 11.9141 26.6484 8.65039 24.1934 6.18945ZM14.9941 26.2051C13.0488 26.2051 11.1445 25.6836 9.48633 24.6992L9.09375 24.4648L5.00391 25.5371L6.09375 21.5469L5.83594 21.1367C4.75195 19.4141 4.18359 17.4277 4.18359 15.3828C4.18359 9.42383 9.03516 4.57227 15 4.57227C17.8887 4.57227 20.6016 5.69727 22.6406 7.74219C24.6797 9.78711 25.9336 12.5 25.9277 15.3887C25.9277 21.3535 20.9531 26.2051 14.9941 26.2051ZM20.9238 18.1074C20.6016 17.9434 19.002 17.1582 18.7031 17.0527C18.4043 16.9414 18.1875 16.8887 17.9707 17.2168C17.7539 17.5449 17.1328 18.2715 16.9395 18.4941C16.752 18.7109 16.5586 18.7402 16.2363 18.5762C14.3262 17.6211 13.0723 16.8711 11.8125 14.709C11.4785 14.1348 12.1465 14.1758 12.7676 12.9336C12.873 12.7168 12.8203 12.5293 12.7383 12.3652C12.6562 12.2012 12.0059 10.6016 11.7363 9.95117C11.4727 9.31836 11.2031 9.40625 11.0039 9.39453C10.8164 9.38281 10.5996 9.38281 10.3828 9.38281C10.166 9.38281 9.81445 9.46484 9.51562 9.78711C9.2168 10.1152 8.37891 10.9004 8.37891 12.5C8.37891 14.0996 9.54492 15.6465 9.70313 15.8633C9.86719 16.0801 11.9941 19.3613 15.2578 20.7734C17.3203 21.6641 18.1289 21.7402 19.1602 21.5879C19.7871 21.4941 21.082 20.8027 21.3516 20.041C21.6211 19.2793 21.6211 18.6289 21.5391 18.4941C21.4629 18.3477 21.2461 18.2656 20.9238 18.1074Z" fill="white"/>
</svg>
