<svg width="30" height="31" viewBox="0 0 30 31" fill="none" xmlns="http://www.w3.org/2000/svg">
<g clip-path="url(#clip0_50_53)">
<path d="M29.5312 15.5C29.5312 7.47266 23.0273 0.96875 15 0.96875C6.97266 0.96875 0.46875 7.47266 0.46875 15.5C0.46875 22.7527 5.78262 28.7645 12.7295 29.8555V19.7006H9.03809V15.5H12.7295V12.2984C12.7295 8.65684 14.8975 6.64531 18.218 6.64531C19.8082 6.64531 21.4711 6.92891 21.4711 6.92891V10.5031H19.6383C17.8336 10.5031 17.2705 11.6234 17.2705 12.7725V15.5H21.3006L20.6561 19.7006H17.2705V29.8555C24.2174 28.7645 29.5312 22.7527 29.5312 15.5Z" fill="white"/>
</g>
<defs>
<clipPath id="clip0_50_53">
<rect width="30" height="30" fill="white" transform="translate(0 0.5)"/>
</clipPath>
</defs>
</svg>
