<svg width="31" height="31" viewBox="0 0 31 31" fill="none" xmlns="http://www.w3.org/2000/svg">
<g clip-path="url(#clip0_50_55)">
<path d="M27.2495 9.38969C27.2685 9.65617 27.2685 9.92271 27.2685 10.1892C27.2685 18.3173 21.082 27.6828 9.77487 27.6828C6.29136 27.6828 3.05534 26.6739 0.333252 24.9227C0.828193 24.9798 1.30403 24.9988 1.81802 24.9988C4.69233 24.9988 7.33831 24.028 9.45126 22.372C6.74821 22.3148 4.48298 20.5445 3.70251 18.108C4.08325 18.165 4.46394 18.2031 4.86372 18.2031C5.41573 18.2031 5.9678 18.127 6.48173 17.9938C3.66448 17.4227 1.55147 14.9481 1.55147 11.9595V11.8834C2.36997 12.3402 3.32183 12.6258 4.33063 12.6638C2.67454 11.5597 1.58956 9.67522 1.58956 7.54322C1.58956 6.40111 1.89407 5.35416 2.4271 4.44045C5.45376 8.17141 10.0033 10.6079 15.1047 10.8745C15.0096 10.4176 14.9525 9.94176 14.9525 9.46586C14.9525 6.0775 17.6936 3.31738 21.1009 3.31738C22.8712 3.31738 24.4702 4.05977 25.5933 5.259C26.9829 4.99252 28.3153 4.47854 29.4956 3.77424C29.0387 5.20193 28.0679 6.40117 26.7925 7.16254C28.0299 7.02936 29.2291 6.68664 30.3331 6.2108C29.4957 7.42902 28.4487 8.514 27.2495 9.38969Z" fill="white"/>
</g>
<defs>
<clipPath id="clip0_50_55">
<rect width="30" height="30" fill="white" transform="translate(0.333252 0.5)"/>
</clipPath>
</defs>
</svg>
